<svg xmlns="http://www.w3.org/2000/svg" viewBox="0 0 900 620"><rect width="900" height="620" rx="34" fill="#eef8ff"/><rect x="104" y="112" width="692" height="384" rx="28" fill="#fff" stroke="#d8e7ef" stroke-width="6"/><rect x="158" y="176" width="250" height="236" rx="24" fill="#24b8a6"/><rect x="458" y="168" width="284" height="56" rx="18" fill="#eafbf8"/><rect x="458" y="248" width="230" height="28" rx="14" fill="#d7eff6"/><rect x="458" y="304" width="202" height="28" rx="14" fill="#d7eff6"/><rect x="458" y="360" width="252" height="28" rx="14" fill="#d7eff6"/><circle cx="230" cy="248" r="52" fill="#fff" opacity=".95"/><path d="M198 324c12-36 54-44 78-20 13 13 20 28 22 44h-100c0-8 0-16 0-24z" fill="#fff" opacity=".95"/><circle cx="706" cy="468" r="52" fill="#ffd166" opacity=".85"/></svg>