<svg xmlns="http://www.w3.org/2000/svg" viewBox="0 0 900 720"><rect width="900" height="720" rx="42" fill="#eafbf8"/><circle cx="715" cy="118" r="72" fill="#ffd166" opacity=".8"/><circle cx="147" cy="130" r="56" fill="#8fd9ff" opacity=".55"/><rect x="120" y="152" width="630" height="382" rx="28" fill="#fff" stroke="#cfe7ef" stroke-width="6"/><rect x="160" y="206" width="206" height="250" rx="20" fill="#24b8a6"/><rect x="396" y="206" width="122" height="250" rx="18" fill="#ff8a65"/><rect x="546" y="206" width="148" height="90" rx="18" fill="#ffd166"/><rect x="546" y="322" width="148" height="134" rx="18" fill="#7fd2f7"/><rect x="180" y="236" width="166" height="18" rx="9" fill="#fff" opacity=".9"/><rect x="180" y="270" width="130" height="14" rx="7" fill="#fff" opacity=".85"/><rect x="180" y="306" width="148" height="14" rx="7" fill="#fff" opacity=".85"/><rect x="180" y="342" width="110" height="14" rx="7" fill="#fff" opacity=".85"/><rect x="160" y="520" width="480" height="26" rx="13" fill="#d5eef5"/><g transform="translate(706 382)"><rect x="0" y="0" width="64" height="164" rx="26" fill="#fff" stroke="#cfe7ef" stroke-width="4"/><rect x="18" y="18" width="28" height="110" rx="14" fill="#24b8a6"/><circle cx="32" cy="136" r="8" fill="#ff8a65"/></g></svg>